<svg width="41" height="50" viewBox="0 0 41 50" fill="none" xmlns="http://www.w3.org/2000/svg">
<path d="M8.53543 10.1532C8.29854 9.69562 8.00983 9.26173 7.6767 8.85939C7.34358 8.45706 6.98084 8.18095 6.59589 8.04684V8.01528C7.49904 7.67606 8.2023 7.17906 8.7205 6.49273C9.23129 5.7985 9.49039 4.98595 9.49039 4.03928C9.49039 2.69028 9.09064 1.68839 8.28373 1.01784C7.47683 0.34728 6.27757 0.00805664 4.68597 0.00805664H0V14.2554H2.89449V8.92251H3.74582C4.13076 8.95406 4.45649 9.11973 4.7526 9.40373C5.04131 9.69562 5.33001 10.1295 5.62613 10.7054L7.42501 14.2475H10.7267L8.53543 10.1532ZM5.84081 5.91684C5.44106 6.33495 4.91546 6.54795 4.25661 6.54795H2.9019V2.34317H4.31583C5.0265 2.34317 5.5595 2.51672 5.91484 2.84806C6.27017 3.18728 6.44043 3.67639 6.44043 4.33117C6.44043 4.96228 6.24056 5.49084 5.84081 5.91684Z" fill="#0C2D8A"/>
<path d="M20.5798 11.731V14.2554H12.6514V0.00805664H20.2688V2.54039H15.5459V5.82217H19.9431V8.3545H15.5459V11.731H20.5798Z" fill="#0C2D8A"/>
<path d="M33.0755 1.73556C31.891 0.583778 30.1218 0 27.7529 0H23.1113V14.2473H27.7455C29.8849 14.2473 31.6097 13.5847 32.9052 12.2672C34.2081 10.9419 34.8522 9.16689 34.8522 6.95012C34.8448 4.63867 34.2525 2.90311 33.0755 1.73556ZM30.6474 10.4607C29.8923 11.3127 28.8485 11.7308 27.516 11.7308H26.0058V2.54022H27.516C28.8707 2.54022 29.9219 2.93467 30.6622 3.72356C31.4099 4.50456 31.7726 5.60111 31.7726 6.99745C31.78 8.46478 31.4099 9.61656 30.6474 10.4607Z" fill="#0C2D8A"/>
<path d="M39.9751 0.00805664H37.0732V14.2554H39.9751V0.00805664Z" fill="#0C2D8A"/>
<path d="M18.2848 38.8768C18.2848 42.5845 17.4853 45.3693 15.9011 47.2153C14.3095 49.0692 12.4366 50.0001 9.26082 50.0001C6.17386 50.0001 3.86418 49.0929 2.317 47.2942C0.784617 45.4955 0.00732422 42.766 0.00732422 39.1213V24.803H4.99681V39.2002C4.99681 41.2434 5.36695 42.766 6.11463 43.7915C6.86232 44.8092 7.97273 45.3141 9.43109 45.3141C10.9042 45.3141 11.4891 44.825 12.2145 43.8389C12.94 42.8528 13.3028 41.3775 13.3028 39.4053V24.803H18.2774L18.2848 38.8768Z" fill="#0C2D8A"/>
<path d="M40.182 49.708H34.4893L30.6028 41.5036C30.5288 41.3537 30.4548 41.1407 30.3807 40.8646C30.3141 40.5885 30.2327 40.2493 30.1513 39.8548H30.092C30.0402 40.0363 29.9736 40.2808 29.8922 40.5648C29.8033 40.8567 29.6997 41.1802 29.5664 41.5509L25.6726 49.7002H19.9502L26.9903 37.2357L20.5498 24.7949H26.398L29.6257 32.3525C29.7515 32.6365 29.8625 32.9599 29.981 33.307C30.092 33.6541 30.2031 34.0328 30.3067 34.4351H30.3659C30.44 34.1669 30.5288 33.8593 30.6398 33.5043C30.7509 33.1493 30.8915 32.739 31.0618 32.2815L34.6522 24.7949H39.9896L33.3641 37.1489L40.182 49.708Z" fill="#0C2D8A"/>
<path d="M39.9824 18.6414V20.4164C39.9824 20.9055 39.6049 21.2999 39.1459 21.2999H0.836437C0.377463 21.2999 0.00732422 20.9055 0.00732422 20.4164V18.6414C0.00732422 18.1523 0.377463 17.7578 0.836437 17.7578H39.1459C39.6049 17.7578 39.9824 18.1523 39.9824 18.6414Z" fill="#0C2D8A"/>
</svg>
