<svg width="151" height="41" viewBox="0 0 151 41" fill="none" xmlns="http://www.w3.org/2000/svg">
<path d="M17.52 17.61C17.09 16.82 16.55 16.07 15.93 15.36C15.31 14.66 14.65 14.18 13.93 13.95V13.89C15.59 13.31 16.89 12.44 17.86 11.25C18.81 10.04 19.29 8.64 19.29 7C19.29 4.66 18.55 2.91 17.06 1.76C15.56 0.590002 13.35 0.0100021 10.41 0.0100021H1.74V24.74H7.09V15.48H8.67C9.38 15.54 9.99 15.83 10.53 16.32C11.06 16.82 11.6 17.59 12.15 18.59L15.47 24.74H21.58L17.52 17.61ZM12.54 10.27C11.8 11 10.83 11.37 9.6 11.37H7.1V4.08H9.71C11.03 4.08 12.01 4.38 12.67 4.95C13.33 5.53 13.65 6.38 13.65 7.52C13.64 8.61 13.28 9.53 12.54 10.27Z" fill="#4366AA"/>
<path d="M39.78 20.35V24.73H25.13V0H39.22V4.4H30.49V10.09H38.61V14.49H30.49V20.35H39.78Z" fill="#4366AA"/>
<path d="M62.9 3.01C60.71 1.01 57.43 0 53.06 0H44.48V24.73H53.05C57.01 24.73 60.2 23.58 62.59 21.29C64.99 18.99 66.19 15.91 66.19 12.06C66.18 8.04 65.08 5.02 62.9 3.01ZM58.41 18.15C57.01 19.62 55.08 20.36 52.62 20.36H49.82V4.4H52.62C55.13 4.4 57.06 5.08 58.44 6.46C59.82 7.82 60.5 9.71 60.5 12.14C60.5 14.68 59.81 16.68 58.41 18.15Z" fill="#4366AA"/>
<path d="M75.66 0H70.29V24.73H75.66V0Z" fill="#4366AA"/>
<path d="M113.96 22.35C113.96 28.23 112.61 32.65 109.92 35.59C107.23 38.54 104.06 40.01 98.68 40.01C93.46 40.01 89.55 38.58 86.94 35.72C84.34 32.86 83.04 28.54 83.04 22.74V0H91.48V22.86C91.48 26.1 92.11 28.52 93.37 30.15C94.63 31.77 96.51 32.57 98.98 32.57C101.47 32.57 102.46 31.79 103.69 30.23C104.92 28.66 105.53 26.32 105.53 23.19V0H113.94L113.96 22.35Z" fill="#0C2D8A"/>
<path d="M151 39.54H141.37L134.8 26.53C134.68 26.29 134.55 25.95 134.43 25.51C134.32 25.07 134.18 24.53 134.05 23.91H133.95C133.86 24.2 133.75 24.59 133.61 25.04C133.46 25.5 133.28 26.02 133.06 26.61L126.47 39.54H116.78L128.69 19.75L117.79 0H127.68L133.14 12C133.35 12.45 133.54 12.96 133.74 13.51C133.93 14.06 134.11 14.66 134.29 15.31H134.39C134.51 14.88 134.67 14.4 134.85 13.83C135.04 13.27 135.28 12.62 135.56 11.89L141.63 0H150.66L139.47 19.6L151 39.54Z" fill="#0C2D8A"/>
<path d="M75.65 32.28V37.28C75.65 38.66 74.54 39.78 73.16 39.78H3.49C2.12 39.78 1 38.66 1 37.28V32.28C1 30.9 2.11 29.78 3.49 29.78H73.17C74.54 29.78 75.65 30.9 75.65 32.28Z" fill="#F3F3F3" stroke="#0C2D8A" stroke-width="0.5" stroke-miterlimit="10"/>
<path d="M9.82 37.07L8.48 35.72C8.74 35.38 8.9 34.95 8.9 34.49C8.9 33.39 8 32.49 6.91 32.49C5.81 32.49 4.92 33.39 4.92 34.49C4.92 35.6 5.81 36.49 6.91 36.49C7.37 36.49 7.8 36.34 8.13 36.07L9.46 37.42C9.51 37.47 9.58 37.49 9.64 37.49C9.7 37.49 9.77 37.47 9.82 37.42C9.91 37.32 9.91 37.17 9.82 37.07ZM6.9 36.05C6.04 36.05 5.35 35.35 5.35 34.49C5.35 33.63 6.05 32.94 6.9 32.94C7.76 32.94 8.45 33.63 8.45 34.49C8.46 35.35 7.76 36.05 6.9 36.05Z" fill="#0C2D8A" stroke="#0C2D8A" stroke-width="0.5" stroke-miterlimit="10"/>
</svg>
